<svg version="1.1" viewBox="0.0 0.0 837.6929133858267 441.12335958005247" fill="none" stroke="none" stroke-linecap="square" stroke-miterlimit="10" xmlns:xlink="http://www.w3.org/1999/xlink" xmlns="http://www.w3.org/2000/svg"><clipPath id="p.0"><path d="m0 0l837.69293 0l0 441.12335l-837.69293 0l0 -441.12335z" clip-rule="nonzero"/></clipPath><g clip-path="url(#p.0)"><path fill="#000000" fill-opacity="0.0" d="m0 0l837.69293 0l0 441.12335l-837.69293 0z" fill-rule="evenodd"/><path fill="#980000" d="m15.170604 223.12599l0 0c0 -30.475693 24.705421 -55.181107 55.181103 -55.181107l0 0c14.634933 0 28.670464 5.8137054 39.01893 16.16217c10.348465 10.348465 16.16217 24.383987 16.16217 39.018936l0 0c0 30.475677 -24.705421 55.181107 -55.1811 55.181107l0 0c-30.475681 0 -55.181103 -24.70543 -55.181103 -55.181107z" fill-rule="evenodd"/><path stroke="#000000" stroke-width="3.0" stroke-linejoin="round" stroke-linecap="butt" d="m15.170604 223.12599l0 0c0 -30.475693 24.705421 -55.181107 55.181103 -55.181107l0 0c14.634933 0 28.670464 5.8137054 39.01893 16.16217c10.348465 10.348465 16.16217 24.383987 16.16217 39.018936l0 0c0 30.475677 -24.705421 55.181107 -55.1811 55.181107l0 0c-30.475681 0 -55.181103 -24.70543 -55.181103 -55.181107z" fill-rule="evenodd"/><path fill="#4a86e8" d="m229.43991 250.49802l0 0c-16.107574 -25.874756 -8.189713 -59.908157 17.685043 -76.01575l0 0c12.425491 -7.7351227 27.41484 -10.217438 41.670578 -6.9008484c14.255707 3.3165894 26.610046 12.1604 34.345184 24.585892l0 0c16.107574 25.874756 8.189697 59.908173 -17.685059 76.01576l0 0c-25.874756 16.107574 -59.908157 8.189697 -76.01575 -17.685059z" fill-rule="evenodd"/><path stroke="#000000" stroke-width="3.0" stroke-linejoin="round" stroke-linecap="butt" d="m229.43991 250.49802l0 0c-16.107574 -25.874756 -8.189713 -59.908157 17.685043 -76.01575l0 0c12.425491 -7.7351227 27.41484 -10.217438 41.670578 -6.9008484c14.255707 3.3165894 26.610046 12.1604 34.345184 24.585892l0 0c16.107574 25.874756 8.189697 59.908173 -17.685059 76.01576l0 0c-25.874756 16.107574 -59.908157 8.189697 -76.01575 -17.685059z" fill-rule="evenodd"/><path fill="#000000" d="m28.020998 186.60367l-5.0131245 -20.05249l12.53281 -20.049866l0.62467194 19.425201l4.3884506 11.2782135" fill-rule="evenodd"/><path stroke="#000000" stroke-width="1.0" stroke-linejoin="round" stroke-linecap="butt" d="m28.020998 186.60367l-5.0131245 -20.05249l12.53281 -20.049866l0.62467194 19.425201l4.3884506 11.2782135" fill-rule="evenodd"/><path fill="#000000" d="m112.94751 186.60367l5.0131226 -20.05249l-12.532814 -20.049866l-0.62467194 19.425201l-4.3884506 11.2782135" fill-rule="evenodd"/><path stroke="#000000" stroke-width="1.0" stroke-linejoin="round" stroke-linecap="butt" d="m112.94751 186.60367l5.0131226 -20.05249l-12.532814 -20.049866l-0.62467194 19.425201l-4.3884506 11.2782135" fill-rule="evenodd"/><path fill="#4a86e8" d="m370.62918 105.18152l0 0c-16.107574 -25.874756 -8.189697 -59.90817 17.685059 -76.01575l0 0c12.425476 -7.735134 27.414825 -10.217445 41.670563 -6.900858c14.255707 3.3165894 26.610046 12.1604 34.345184 24.585896l0 0c16.107574 25.874756 8.189697 59.908173 -17.685059 76.01575l0 0c-25.874756 16.107582 -59.908142 8.18972 -76.01575 -17.685036z" fill-rule="evenodd"/><path stroke="#000000" stroke-width="3.0" stroke-linejoin="round" stroke-linecap="butt" d="m370.62918 105.18152l0 0c-16.107574 -25.874756 -8.189697 -59.90817 17.685059 -76.01575l0 0c12.425476 -7.735134 27.414825 -10.217445 41.670563 -6.900858c14.255707 3.3165894 26.610046 12.1604 34.345184 24.585896l0 0c16.107574 25.874756 8.189697 59.908173 -17.685059 76.01575l0 0c-25.874756 16.107582 -59.908142 8.18972 -76.01575 -17.685036z" fill-rule="evenodd"/><path fill="#000000" fill-opacity="0.0" d="m249.02892 186.55202l54.551163 0.06298828l0 69.48033l-54.551163 -0.0630188z" fill-rule="evenodd"/><path fill="#000000" d="m257.9664 235.24237l11.359375 -29.565033l4.21875 0.0048675537l12.109375 29.592133l-4.453125 -0.005142212l-3.453125 -8.957123l-12.375 -0.014282227l-3.25 8.949371l-4.15625 -0.0047912598zm8.53125 -12.130783l10.03125 0.011581421l-3.078125 -8.206696q-1.421875 -3.7360077 -2.109375 -6.127426q-0.5625 2.8430939 -1.59375 5.6387787l-3.25 8.683762z" fill-rule="nonzero"/><path fill="#000000" fill-opacity="0.0" d="m387.98163 123.16273l-65.66928 65.66929" fill-rule="evenodd"/><path stroke="#85200c" stroke-width="3.0" stroke-linejoin="round" stroke-linecap="butt" d="m387.98163 123.16273l-52.941376 52.941383" fill-rule="evenodd"/><path fill="#85200c" stroke="#85200c" stroke-width="3.0" stroke-linecap="butt" d="m331.5364 172.60025l-6.1228943 13.130615l13.130585 -6.1229095z" fill-rule="evenodd"/><path fill="#4a86e8" d="m370.62918 335.0938l0 0c-16.107574 25.874756 -8.189697 59.908173 17.685059 76.01575l0 0c12.425476 7.735138 27.414825 10.217468 41.670563 6.900879c14.255707 -3.3165894 26.610046 -12.1604 34.345184 -24.585907l0 0c16.107574 -25.874756 8.189697 -59.908173 -17.685059 -76.01575l0 0c-25.874756 -16.107574 -59.908142 -8.189728 -76.01575 17.685028z" fill-rule="evenodd"/><path stroke="#000000" stroke-width="3.0" stroke-linejoin="round" stroke-linecap="butt" d="m370.62918 335.0938l0 0c-16.107574 25.874756 -8.189697 59.908173 17.685059 76.01575l0 0c12.425476 7.735138 27.414825 10.217468 41.670563 6.900879c14.255707 -3.3165894 26.610046 -12.1604 34.345184 -24.585907l0 0c16.107574 -25.874756 8.189697 -59.908173 -17.685059 -76.01575l0 0c-25.874756 -16.107574 -59.908142 -8.189728 -76.01575 17.685028z" fill-rule="evenodd"/><path fill="#000000" fill-opacity="0.0" d="m363.4727 347.3711l-74.677155 -74.677185" fill-rule="evenodd"/><path stroke="#38761d" stroke-width="3.0" stroke-linejoin="round" stroke-linecap="butt" d="m363.4727 347.3711l-61.94925 -61.94925" fill-rule="evenodd"/><path fill="#38761d" stroke="#38761d" stroke-width="3.0" stroke-linecap="butt" d="m305.02728 281.918l-13.130585 -6.122925l6.1228943 13.130615z" fill-rule="evenodd"/><path fill="#000000" fill-opacity="0.0" d="m378.7651 326.7848l-65.63782 -65.66931" fill-rule="evenodd"/><path stroke="#351c75" stroke-width="3.0" stroke-linejoin="round" stroke-linecap="butt" d="m378.7651 326.7848l-52.912964 -52.938324" fill-rule="evenodd"/><path fill="#351c75" stroke="#351c75" stroke-width="3.0" stroke-linecap="butt" d="m329.35687 270.34344l-13.12915 -6.1260376l6.119751 13.13208z" fill-rule="evenodd"/><path fill="#4a86e8" d="m605.2089 251.68306l0 0c16.107605 -25.874756 8.189758 -59.908157 -17.684998 -76.01575l0 0c-12.425537 -7.735138 -27.414856 -10.217438 -41.670593 -6.9008484c-14.255737 3.316574 -26.610046 12.160385 -34.345184 24.585892l0 0c-16.107574 25.874756 -8.189697 59.908173 17.685028 76.01575l0 0c25.874756 16.107574 59.908203 8.189728 76.01575 -17.685043z" fill-rule="evenodd"/><path stroke="#000000" stroke-width="3.0" stroke-linejoin="round" stroke-linecap="butt" d="m605.2089 251.68306l0 0c16.107605 -25.874756 8.189758 -59.908157 -17.684998 -76.01575l0 0c-12.425537 -7.735138 -27.414856 -10.217438 -41.670593 -6.9008484c-14.255737 3.316574 -26.610046 12.160385 -34.345184 24.585892l0 0c-16.107574 25.874756 -8.189697 59.908173 17.685028 76.01575l0 0c25.874756 16.107574 59.908203 8.189728 76.01575 -17.685043z" fill-rule="evenodd"/><path fill="#000000" fill-opacity="0.0" d="m585.61993 187.73706l-54.551147 0.06298828l0 69.480316l54.551147 -0.06298828z" fill-rule="evenodd"/><path fill="#000000" d="m543.10004 236.46619l0 -29.578156l11.093689 -0.012802124q3.390625 -0.003921509 5.4375 0.8999634q2.046875 0.88827515 3.203125 2.7619324q1.171875 1.8580322 1.171875 3.8892822q0 1.890625 -1.03125 3.5793152q-1.03125 1.6730652 -3.109375 2.7067108q2.6875 0.77815247 4.125 2.6827393q1.4375 1.888977 1.4375 4.467102q0 2.078125 -0.875 3.876007q-0.875 1.7822571 -2.171875 2.7525024q-1.28125 0.9702301 -3.234375 1.4724884q-1.953125 0.4866333 -4.765625 0.48988342l-11.281189 0.013031006zm3.90625 -17.160782l6.406189 -0.007385254q2.59375 -0.0030059814 3.734375 -0.34806824q1.484375 -0.43920898 2.234375 -1.4713287q0.765625 -1.032135 0.765625 -2.57901q0 -1.484375 -0.703125 -2.5929413q-0.703125 -1.1241913 -2.015625 -1.5289307q-1.3125 -0.42034912 -4.5 -0.41667175l-5.921814 0.0068359375l0 8.9375zm0 13.67189l7.374939 -0.008514404q1.890625 -0.0021820068 2.65625 -0.14369202q1.359375 -0.25157166 2.265625 -0.8151245q0.90625 -0.5635376 1.484375 -1.642334q0.59375 -1.0788116 0.59375 -2.5006866q0 -1.65625 -0.859375 -2.8740082q-0.84375 -1.2177734 -2.34375 -1.7004242q-1.5 -0.4982605 -4.328125 -0.49499512l-6.843689 0.007904053l0 10.171875z" fill-rule="nonzero"/><path fill="#000000" fill-opacity="0.0" d="m511.50815 193.35236l-66.89761 -69.25984" fill-rule="evenodd"/><path stroke="#85200c" stroke-width="3.0" stroke-linejoin="round" stroke-linecap="butt" d="m511.50815 193.35236l-54.392426 -56.313065" fill-rule="evenodd"/><path fill="#85200c" stroke="#85200c" stroke-width="3.0" stroke-linecap="butt" d="m460.67984 133.59676l-13.0224 -6.3497543l5.8941956 13.23484z" fill-rule="evenodd"/><path fill="#000000" fill-opacity="0.0" d="m545.85333 273.87897l-74.677155 74.677155" fill-rule="evenodd"/><path stroke="#38761d" stroke-width="3.0" stroke-linejoin="round" stroke-linecap="butt" d="m545.85333 273.87897l-61.94922 61.94925" fill-rule="evenodd"/><path fill="#38761d" stroke="#38761d" stroke-width="3.0" stroke-linecap="butt" d="m480.40024 332.32437l-6.1228943 13.130615l13.130615 -6.122925z" fill-rule="evenodd"/><path fill="#000000" fill-opacity="0.0" d="m517.6124 261.79266l-61.007874 61.44879" fill-rule="evenodd"/><path stroke="#351c75" stroke-width="3.0" stroke-linejoin="round" stroke-linecap="butt" d="m517.6124 261.79266l-48.325836 48.67514" fill-rule="evenodd"/><path fill="#351c75" stroke="#351c75" stroke-width="3.0" stroke-linecap="butt" d="m465.77014 306.9766l-6.075592 13.152557l13.10849 -6.1701355z" fill-rule="evenodd"/><path fill="#000000" fill-opacity="0.0" d="m390.04858 41.244926l54.551178 0.062992096l0 69.480316l-54.551178 -0.06299591z" fill-rule="evenodd"/><path fill="#000000" d="m423.34546 79.5884l3.921875 0.98889923q-1.234375 4.826706 -4.4375 7.3542557q-3.203125 2.5275574 -7.8125 2.522232q-4.796875 -0.0055389404 -7.796875 -1.9465027q-2.984375 -1.9565735 -4.546875 -5.6458817q-1.5625 -3.7049332 -1.5625 -7.939308q0 -4.625 1.765625 -8.060463q1.765625 -3.4354668 5.015625 -5.212967q3.265625 -1.7931023 7.171875 -1.7885933q4.453125 0.005142212 7.46875 2.27425q3.03125 2.269127 4.21875 6.36425l-3.84375 0.9018173q-1.03125 -3.2355728 -3.0 -4.7065964q-1.953125 -1.4710045 -4.921875 -1.4744339q-3.40625 -0.003932953 -5.703125 1.6340408q-2.28125 1.6223679 -3.21875 4.3869095q-0.921875 2.7489395 -0.921875 5.6708145q0 3.765625 1.09375 6.5950165q1.109375 2.8137817 3.421875 4.2070847q2.328125 1.3933105 5.03125 1.396431q3.28125 0.003791809 5.5625 -1.884201q2.28125 -1.9036179 3.09375 -5.6370544z" fill-rule="nonzero"/><path fill="#000000" fill-opacity="0.0" d="m390.04858 329.489l54.551178 0.06298828l0 69.480316l-54.551178 -0.06298828z" fill-rule="evenodd"/><path fill="#000000" d="m402.23608 378.18314l0 -29.578156l10.1875 0.011749268q3.453125 0.0039978027 5.265625 0.42797852q2.546875 0.5810547 4.34375 2.11438q2.34375 1.9870911 3.5 5.066559q1.15625 3.0794373 1.15625 7.032593q0 3.375 -0.78125 5.9834595q-0.78125 2.592865 -2.015625 4.2945557q-1.234375 1.7016907 -2.703125 2.6843872q-1.453125 0.96707153 -3.53125 1.4802856q-2.0625 0.49761963 -4.75 0.49450684l-10.671875 -0.012298584zm3.921875 -3.4798584l6.3125 0.007293701q2.921875 0.0033569336 4.578125 -0.54159546q1.671875 -0.5449524 2.671875 -1.5281677q1.390625 -1.4046326 2.15625 -3.7474976q0.78125 -2.342865 0.78125 -5.70224q0 -4.640625 -1.53125 -7.12677q-1.515625 -2.5017395 -3.6875 -3.3480225q-1.578125 -0.61117554 -5.078125 -0.6152344l-6.203125 -0.007171631l0 22.609406z" fill-rule="nonzero"/><path fill="#000000" fill-opacity="0.0" d="m323.14072 192.16731l188.37793 1.1968536" fill-rule="evenodd"/><path stroke="#85200c" stroke-width="3.0" stroke-linejoin="round" stroke-linecap="butt" d="m323.14072 192.16733l170.37833 1.082489" fill-rule="evenodd"/><path fill="#85200c" stroke="#85200c" stroke-width="3.0" stroke-linecap="butt" d="m493.48755 198.20491l13.645508 -4.8686066l-13.58255 -5.04158z" fill-rule="evenodd"/><path fill="#000000" fill-opacity="0.0" d="m330.3329 234.72633l173.98425 0" fill-rule="evenodd"/><path stroke="#38761d" stroke-width="3.0" stroke-linejoin="round" stroke-linecap="butt" d="m330.33292 234.72633l155.98422 0" fill-rule="evenodd"/><path fill="#38761d" stroke="#38761d" stroke-width="3.0" stroke-linecap="butt" d="m486.31714 239.68153l13.614288 -4.9552l-13.614288 -4.9552z" fill-rule="evenodd"/><path fill="#000000" fill-opacity="0.0" d="m323.13678 254.6988l188.37793 1.1968536" fill-rule="evenodd"/><path stroke="#351c75" stroke-width="3.0" stroke-linejoin="round" stroke-linecap="butt" d="m323.13678 254.69882l170.37833 1.082489" fill-rule="evenodd"/><path fill="#351c75" stroke="#351c75" stroke-width="3.0" stroke-linecap="butt" d="m493.4836 260.73642l13.645477 -4.868622l-13.58252 -5.04158z" fill-rule="evenodd"/><path fill="#000000" fill-opacity="0.0" d="m127.002625 223.97113l95.244095 0" fill-rule="evenodd"/><path stroke="#000000" stroke-width="3.0" stroke-linejoin="round" stroke-linecap="butt" d="m127.002625 223.97113l77.244095 0" fill-rule="evenodd"/><path fill="#000000" stroke="#000000" stroke-width="3.0" stroke-linecap="butt" d="m204.24672 228.92633l13.614288 -4.9552l-13.614288 -4.9552z" fill-rule="evenodd"/><path fill="#980000" d="m822.52234 223.12599l0 0c0 -30.475693 -24.705444 -55.181107 -55.181152 -55.181107l0 0c-14.634888 0 -28.670471 5.8137054 -39.01892 16.16217c-10.34845 10.348465 -16.16217 24.383987 -16.16217 39.018936l0 0c0 30.475677 24.705444 55.181107 55.18109 55.181107l0 0c30.475708 0 55.181152 -24.70543 55.181152 -55.181107z" fill-rule="evenodd"/><path stroke="#000000" stroke-width="3.0" stroke-linejoin="round" stroke-linecap="butt" d="m822.52234 223.12599l0 0c0 -30.475693 -24.705444 -55.181107 -55.181152 -55.181107l0 0c-14.634888 0 -28.670471 5.8137054 -39.01892 16.16217c-10.34845 10.348465 -16.16217 24.383987 -16.16217 39.018936l0 0c0 30.475677 24.705444 55.181107 55.18109 55.181107l0 0c30.475708 0 55.181152 -24.70543 55.181152 -55.181107z" fill-rule="evenodd"/><path fill="#000000" d="m809.67194 186.60367l5.0131226 -20.05249l-12.532837 -20.049866l-0.6246338 19.425201l-4.388489 11.2782135" fill-rule="evenodd"/><path stroke="#000000" stroke-width="1.0" stroke-linejoin="round" stroke-linecap="butt" d="m809.67194 186.60367l5.0131226 -20.05249l-12.532837 -20.049866l-0.6246338 19.425201l-4.388489 11.2782135" fill-rule="evenodd"/><path fill="#000000" d="m724.7454 186.60367l-5.0131226 -20.05249l12.532776 -20.049866l0.6246948 19.425201l4.3884277 11.2782135" fill-rule="evenodd"/><path stroke="#000000" stroke-width="1.0" stroke-linejoin="round" stroke-linecap="butt" d="m724.7454 186.60367l-5.0131226 -20.05249l12.532776 -20.049866l0.6246948 19.425201l4.3884277 11.2782135" fill-rule="evenodd"/><path fill="#000000" fill-opacity="0.0" d="m615.44617 223.97113l95.24414 0" fill-rule="evenodd"/><path stroke="#000000" stroke-width="3.0" stroke-linejoin="round" stroke-linecap="butt" d="m615.44617 223.97113l77.24414 0" fill-rule="evenodd"/><path fill="#000000" stroke="#000000" stroke-width="3.0" stroke-linecap="butt" d="m692.6903 228.92633l13.614258 -4.9552l-13.614258 -4.9552z" fill-rule="evenodd"/><path fill="#000000" fill-opacity="0.0" d="m330.04813 213.956l174.55118 1.1968536" fill-rule="evenodd"/><path stroke="#000000" stroke-width="3.0" stroke-linejoin="round" stroke-linecap="butt" d="m330.04813 213.956l156.55157 1.0734253" fill-rule="evenodd"/><path fill="#000000" stroke="#000000" stroke-width="3.0" stroke-linecap="butt" d="m486.56573 219.98451l13.647949 -4.86174l-13.579987 -5.0484314z" fill-rule="evenodd"/><path fill="#000000" fill-opacity="0.0" d="m120.67585 186.55118l125.637794 0l0 42.015747l-125.637794 0z" fill-rule="evenodd"/><path fill="#000000" d="m130.4571 206.87743q0 -2.359375 0.484375 -3.796875q0.484375 -1.453125 1.4375 -2.234375q0.96875 -0.78125 2.421875 -0.78125q1.078125 0 1.890625 0.4375q0.8125 0.421875 1.328125 1.25q0.53125 0.8125 0.828125 1.984375q0.3125 1.15625 0.3125 3.140625q0 2.359375 -0.484375 3.8125q-0.484375 1.4375 -1.453125 2.234375q-0.953125 0.78125 -2.421875 0.78125q-1.921875 0 -3.03125 -1.390625q-1.3125 -1.671875 -1.3125 -5.4375zm1.671875 0q0 3.296875 0.765625 4.390625q0.78125 1.078125 1.90625 1.078125q1.140625 0 1.90625 -1.09375q0.765625 -1.09375 0.765625 -4.375q0 -3.296875 -0.765625 -4.375q-0.765625 -1.078125 -1.921875 -1.078125q-1.125 0 -1.796875 0.953125q-0.859375 1.21875 -0.859375 4.5zm9.610092 6.59375l0 -1.875l1.875 0l0 1.875l-1.875 0zm10.448929 0l-1.640625 0l0 -10.453125q-0.59375 0.5625 -1.5625 1.140625q-0.953125 0.5625 -1.71875 0.84375l0 -1.59375q1.375 -0.640625 2.40625 -1.5625q1.03125 -0.921875 1.453125 -1.78125l1.0625 0l0 13.40625zm9.793396 0l0 -13.359375l1.640625 0l0 13.359375l-1.640625 0zm3.5823212 -4.84375q0 -2.6875 1.484375 -3.96875q1.25 -1.078125 3.046875 -1.078125q2.0 0 3.265625 1.3125q1.265625 1.296875 1.265625 3.609375q0 1.859375 -0.5625 2.9375q-0.5625 1.0625 -1.640625 1.65625q-1.0625 0.59375 -2.328125 0.59375q-2.03125 0 -3.28125 -1.296875q-1.25 -1.3125 -1.25 -3.765625zm1.6875 0q0 1.859375 0.796875 2.796875q0.8125 0.921875 2.046875 0.921875q1.21875 0 2.03125 -0.921875q0.8125 -0.9375 0.8125 -2.84375q0 -1.796875 -0.8125 -2.71875q-0.8125 -0.921875 -2.03125 -0.921875q-1.234375 0 -2.046875 0.921875q-0.796875 0.90625 -0.796875 2.765625zm15.610092 1.296875l1.609375 0.21875q-0.265625 1.65625 -1.359375 2.609375q-1.078125 0.9375 -2.671875 0.9375q-1.984375 0 -3.1875 -1.296875q-1.203125 -1.296875 -1.203125 -3.71875q0 -1.578125 0.515625 -2.75q0.515625 -1.171875 1.578125 -1.75q1.0625 -0.59375 2.3125 -0.59375q1.578125 0 2.578125 0.796875q1.0 0.796875 1.28125 2.265625l-1.59375 0.234375q-0.234375 -0.96875 -0.8125 -1.453125q-0.578125 -0.5 -1.390625 -0.5q-1.234375 0 -2.015625 0.890625q-0.78125 0.890625 -0.78125 2.8125q0 1.953125 0.75 2.84375q0.75 0.875 1.953125 0.875q0.96875 0 1.609375 -0.59375q0.65625 -0.59375 0.828125 -1.828125zm3.015625 3.546875l0 -13.359375l1.640625 0l0 7.625l3.890625 -3.9375l2.109375 0l-3.6875 3.59375l4.0625 6.078125l-2.015625 0l-3.203125 -4.953125l-1.15625 1.125l0 3.828125l-1.640625 0zm15.953125 -3.109375l1.6875 0.203125q-0.40625 1.484375 -1.484375 2.3125q-1.078125 0.8125 -2.765625 0.8125q-2.125 0 -3.375 -1.296875q-1.234375 -1.3125 -1.234375 -3.671875q0 -2.453125 1.25 -3.796875q1.265625 -1.34375 3.265625 -1.34375q1.9375 0 3.15625 1.328125q1.234375 1.3125 1.234375 3.703125q0 0.15625 0 0.4375l-7.21875 0q0.09375 1.59375 0.90625 2.453125q0.8125 0.84375 2.015625 0.84375q0.90625 0 1.546875 -0.46875q0.640625 -0.484375 1.015625 -1.515625zm-5.390625 -2.65625l5.40625 0q-0.109375 -1.21875 -0.625 -1.828125q-0.78125 -0.953125 -2.03125 -0.953125q-1.125 0 -1.90625 0.765625q-0.765625 0.75 -0.84375 2.015625zm15.406967 5.765625l0 -1.21875q-0.90625 1.4375 -2.703125 1.4375q-1.15625 0 -2.125 -0.640625q-0.96875 -0.640625 -1.5 -1.78125q-0.53125 -1.140625 -0.53125 -2.625q0 -1.453125 0.484375 -2.625q0.484375 -1.1875 1.4375 -1.8125q0.96875 -0.625 2.171875 -0.625q0.875 0 1.546875 0.375q0.6875 0.359375 1.109375 0.953125l0 -4.796875l1.640625 0l0 13.359375l-1.53125 0zm-5.171875 -4.828125q0 1.859375 0.78125 2.78125q0.78125 0.921875 1.84375 0.921875q1.078125 0 1.828125 -0.875q0.75 -0.890625 0.75 -2.6875q0 -1.984375 -0.765625 -2.90625q-0.765625 -0.9375 -1.890625 -0.9375q-1.078125 0 -1.8125 0.890625q-0.734375 0.890625 -0.734375 2.8125z" fill-rule="nonzero"/><path fill="#000000" fill-opacity="0.0" d="m612.08795 186.55118l125.63776 0l0 42.015747l-125.63776 0z" fill-rule="evenodd"/><path fill="#000000" d="m621.8692 206.87743q0 -2.359375 0.484375 -3.796875q0.484375 -1.453125 1.4375 -2.234375q0.96875 -0.78125 2.421875 -0.78125q1.078125 0 1.890625 0.4375q0.8125 0.421875 1.328125 1.25q0.53125 0.8125 0.828125 1.984375q0.3125 1.15625 0.3125 3.140625q0 2.359375 -0.484375 3.8125q-0.484375 1.4375 -1.453125 2.234375q-0.953125 0.78125 -2.421875 0.78125q-1.921875 0 -3.03125 -1.390625q-1.3125 -1.671875 -1.3125 -5.4375zm1.671875 0q0 3.296875 0.765625 4.390625q0.78125 1.078125 1.90625 1.078125q1.140625 0 1.90625 -1.09375q0.765625 -1.09375 0.765625 -4.375q0 -3.296875 -0.765625 -4.375q-0.765625 -1.078125 -1.921875 -1.078125q-1.125 0 -1.796875 0.953125q-0.859375 1.21875 -0.859375 4.5zm9.610046 6.59375l0 -1.875l1.875 0l0 1.875l-1.875 0zm10.448975 0l-1.640625 0l0 -10.453125q-0.59375 0.5625 -1.5625 1.140625q-0.953125 0.5625 -1.71875 0.84375l0 -1.59375q1.375 -0.640625 2.40625 -1.5625q1.03125 -0.921875 1.453125 -1.78125l1.0625 0l0 13.40625zm9.793396 0l0 -13.359375l1.640625 0l0 13.359375l-1.640625 0zm3.5822754 -4.84375q0 -2.6875 1.484375 -3.96875q1.25 -1.078125 3.046875 -1.078125q2.0 0 3.265625 1.3125q1.265625 1.296875 1.265625 3.609375q0 1.859375 -0.5625 2.9375q-0.5625 1.0625 -1.640625 1.65625q-1.0625 0.59375 -2.328125 0.59375q-2.03125 0 -3.28125 -1.296875q-1.25 -1.3125 -1.25 -3.765625zm1.6875 0q0 1.859375 0.796875 2.796875q0.8125 0.921875 2.046875 0.921875q1.21875 0 2.03125 -0.921875q0.8125 -0.9375 0.8125 -2.84375q0 -1.796875 -0.8125 -2.71875q-0.8125 -0.921875 -2.03125 -0.921875q-1.234375 0 -2.046875 0.921875q-0.796875 0.90625 -0.796875 2.765625zm15.610107 1.296875l1.609375 0.21875q-0.265625 1.65625 -1.359375 2.609375q-1.078125 0.9375 -2.671875 0.9375q-1.984375 0 -3.1875 -1.296875q-1.203125 -1.296875 -1.203125 -3.71875q0 -1.578125 0.515625 -2.75q0.515625 -1.171875 1.578125 -1.75q1.0625 -0.59375 2.3125 -0.59375q1.578125 0 2.578125 0.796875q1.0 0.796875 1.28125 2.265625l-1.59375 0.234375q-0.234375 -0.96875 -0.8125 -1.453125q-0.578125 -0.5 -1.390625 -0.5q-1.234375 0 -2.015625 0.890625q-0.78125 0.890625 -0.78125 2.8125q0 1.953125 0.75 2.84375q0.75 0.875 1.953125 0.875q0.96875 0 1.609375 -0.59375q0.65625 -0.59375 0.828125 -1.828125zm3.015625 3.546875l0 -13.359375l1.640625 0l0 7.625l3.890625 -3.9375l2.109375 0l-3.6875 3.59375l4.0625 6.078125l-2.015625 0l-3.203125 -4.953125l-1.15625 1.125l0 3.828125l-1.640625 0zm15.953125 -3.109375l1.6875 0.203125q-0.40625 1.484375 -1.484375 2.3125q-1.078125 0.8125 -2.765625 0.8125q-2.125 0 -3.375 -1.296875q-1.234375 -1.3125 -1.234375 -3.671875q0 -2.453125 1.25 -3.796875q1.265625 -1.34375 3.265625 -1.34375q1.9375 0 3.15625 1.328125q1.234375 1.3125 1.234375 3.703125q0 0.15625 0 0.4375l-7.21875 0q0.09375 1.59375 0.90625 2.453125q0.8125 0.84375 2.015625 0.84375q0.90625 0 1.546875 -0.46875q0.640625 -0.484375 1.015625 -1.515625zm-5.390625 -2.65625l5.40625 0q-0.109375 -1.21875 -0.625 -1.828125q-0.78125 -0.953125 -2.03125 -0.953125q-1.125 0 -1.90625 0.765625q-0.765625 0.75 -0.84375 2.015625zm15.406982 5.765625l0 -1.21875q-0.90625 1.4375 -2.703125 1.4375q-1.15625 0 -2.125 -0.640625q-0.96875 -0.640625 -1.5 -1.78125q-0.53125 -1.140625 -0.53125 -2.625q0 -1.453125 0.484375 -2.625q0.484375 -1.1875 1.4375 -1.8125q0.96875 -0.625 2.171875 -0.625q0.875 0 1.546875 0.375q0.6875 0.359375 1.109375 0.953125l0 -4.796875l1.640625 0l0 13.359375l-1.53125 0zm-5.171875 -4.828125q0 1.859375 0.78125 2.78125q0.78125 0.921875 1.84375 0.921875q1.078125 0 1.828125 -0.875q0.75 -0.890625 0.75 -2.6875q0 -1.984375 -0.765625 -2.90625q-0.765625 -0.9375 -1.890625 -0.9375q-1.078125 0 -1.8125 0.890625q-0.734375 0.890625 -0.734375 2.8125z" fill-rule="nonzero"/><path fill="#000000" fill-opacity="0.0" d="m360.85425 156.77472l125.63779 0l0 42.015747l-125.63779 0z" fill-rule="evenodd"/><path fill="#000000" d="m370.6355 177.10097q0 -2.359375 0.484375 -3.796875q0.484375 -1.453125 1.4375 -2.234375q0.96875 -0.78125 2.421875 -0.78125q1.078125 0 1.890625 0.4375q0.8125 0.421875 1.328125 1.25q0.53125 0.8125 0.828125 1.984375q0.3125 1.15625 0.3125 3.140625q0 2.359375 -0.484375 3.8125q-0.484375 1.4375 -1.453125 2.234375q-0.953125 0.78125 -2.421875 0.78125q-1.921875 0 -3.03125 -1.390625q-1.3125 -1.671875 -1.3125 -5.4375zm1.671875 0q0 3.296875 0.765625 4.390625q0.78125 1.078125 1.90625 1.078125q1.140625 0 1.90625 -1.09375q0.765625 -1.09375 0.765625 -4.375q0 -3.296875 -0.765625 -4.375q-0.765625 -1.078125 -1.921875 -1.078125q-1.125 0 -1.796875 0.953125q-0.859375 1.21875 -0.859375 4.5zm9.610077 6.59375l0 -1.875l1.875 0l0 1.875l-1.875 0zm9.527069 0l0 -3.203125l-5.796875 0l0 -1.5l6.09375 -8.65625l1.34375 0l0 8.65625l1.796875 0l0 1.5l-1.796875 0l0 3.203125l-1.640625 0zm0 -4.703125l0 -6.015625l-4.1875 6.015625l4.1875 0zm10.715271 4.703125l0 -13.359375l1.640625 0l0 13.359375l-1.640625 0zm3.582306 -4.84375q0 -2.6875 1.484375 -3.96875q1.25 -1.078125 3.046875 -1.078125q2.0 0 3.265625 1.3125q1.265625 1.296875 1.265625 3.609375q0 1.859375 -0.5625 2.9375q-0.5625 1.0625 -1.640625 1.65625q-1.0625 0.59375 -2.328125 0.59375q-2.03125 0 -3.28125 -1.296875q-1.25 -1.3125 -1.25 -3.765625zm1.6875 0q0 1.859375 0.796875 2.796875q0.8125 0.921875 2.046875 0.921875q1.21875 0 2.03125 -0.921875q0.8125 -0.9375 0.8125 -2.84375q0 -1.796875 -0.8125 -2.71875q-0.8125 -0.921875 -2.03125 -0.921875q-1.234375 0 -2.046875 0.921875q-0.796875 0.90625 -0.796875 2.765625zm15.610107 1.296875l1.609375 0.21875q-0.265625 1.65625 -1.359375 2.609375q-1.078125 0.9375 -2.671875 0.9375q-1.984375 0 -3.1875 -1.296875q-1.203125 -1.296875 -1.203125 -3.71875q0 -1.578125 0.515625 -2.75q0.515625 -1.171875 1.578125 -1.75q1.0625 -0.59375 2.3125 -0.59375q1.578125 0 2.578125 0.796875q1.0 0.796875 1.28125 2.265625l-1.59375 0.234375q-0.234375 -0.96875 -0.8125 -1.453125q-0.578125 -0.5 -1.390625 -0.5q-1.234375 0 -2.015625 0.890625q-0.78125 0.890625 -0.78125 2.8125q0 1.953125 0.75 2.84375q0.75 0.875 1.953125 0.875q0.96875 0 1.609375 -0.59375q0.65625 -0.59375 0.828125 -1.828125zm3.015625 3.546875l0 -13.359375l1.640625 0l0 7.625l3.890625 -3.9375l2.109375 0l-3.6875 3.59375l4.0625 6.078125l-2.015625 0l-3.203125 -4.953125l-1.15625 1.125l0 3.828125l-1.640625 0zm15.953125 -3.109375l1.6875 0.203125q-0.40625 1.484375 -1.484375 2.3125q-1.078125 0.8125 -2.765625 0.8125q-2.125 0 -3.375 -1.296875q-1.234375 -1.3125 -1.234375 -3.671875q0 -2.453125 1.25 -3.796875q1.265625 -1.34375 3.265625 -1.34375q1.9375 0 3.15625 1.328125q1.234375 1.3125 1.234375 3.703125q0 0.15625 0 0.4375l-7.21875 0q0.09375 1.59375 0.90625 2.453125q0.8125 0.84375 2.015625 0.84375q0.90625 0 1.546875 -0.46875q0.640625 -0.484375 1.015625 -1.515625zm-5.390625 -2.65625l5.40625 0q-0.109375 -1.21875 -0.625 -1.828125q-0.78125 -0.953125 -2.03125 -0.953125q-1.125 0 -1.90625 0.765625q-0.765625 0.75 -0.84375 2.015625zm15.406952 5.765625l0 -1.21875q-0.90625 1.4375 -2.703125 1.4375q-1.15625 0 -2.125 -0.640625q-0.96875 -0.640625 -1.5 -1.78125q-0.53125 -1.140625 -0.53125 -2.625q0 -1.453125 0.484375 -2.625q0.484375 -1.1875 1.4375 -1.8125q0.96875 -0.625 2.171875 -0.625q0.875 0 1.546875 0.375q0.6875 0.359375 1.109375 0.953125l0 -4.796875l1.640625 0l0 13.359375l-1.53125 0zm-5.171875 -4.828125q0 1.859375 0.78125 2.78125q0.78125 0.921875 1.84375 0.921875q1.078125 0 1.828125 -0.875q0.75 -0.890625 0.75 -2.6875q0 -1.984375 -0.765625 -2.90625q-0.765625 -0.9375 -1.890625 -0.9375q-1.078125 0 -1.8125 0.890625q-0.734375 0.890625 -0.734375 2.8125z" fill-rule="nonzero"/></g></svg>